<?xml version="1.0" encoding="utf-8"?>
<!-- Generator: Adobe Illustrator 27.7.0, SVG Export Plug-In . SVG Version: 6.00 Build 0)  -->
<svg version="1.1" id="Layer_1" xmlns="http://www.w3.org/2000/svg" xmlns:xlink="http://www.w3.org/1999/xlink" x="0px" y="0px"
	 viewBox="0 0 407.3 263.1" style="enable-background:new 0 0 407.3 263.1;" xml:space="preserve">
<style type="text/css">
	.st0{enable-background:new    ;}
	.st1{fill:#42534F;}
</style>
<g id="Grupo_10" transform="translate(-180.323 -434.341)">
	<g class="st0">
		<path class="st1" d="M223,455.1h-0.4c-1-3.6-1.8-4.3-5.4-4.3h-1l-4.2,19.9c-0.6,2.6-0.7,4.2,1.6,4.2l-0.1,0.4h-8.2l0.1-0.4
			c2.4,0,2.9-1.6,3.4-4.2l4.2-19.9H212c-3.5,0-4.5,0.6-7.1,4.3h-0.4l1.5-5.2h17.5L223,455.1z"/>
		<path class="st1" d="M239,449.9h8.1l-0.1,0.4c-2.4,0-2.8,1.6-3.4,4.2l-3.5,16.5c-0.6,2.6-0.7,4,1.6,4l-0.1,0.4h-8.1l0.1-0.4
			c2.4,0,2.8-1.4,3.4-4l1.8-8.2H228l-1.7,8.2c-0.6,2.6-0.7,4,1.6,4l-0.1,0.4h-8.1l0.1-0.4c2.4,0,2.8-1.4,3.4-4l3.5-16.5
			c0.6-2.6,0.8-4.2-1.6-4.2l0.1-0.4h8.1l-0.1,0.4c-2.4,0-2.9,1.6-3.4,4.2l-1.5,7.1h10.8l1.5-7.1c0.6-2.6,0.7-4.2-1.6-4.2L239,449.9z
			"/>
		<path class="st1" d="M248.5,449.9h17.1l-0.6,5.2h-0.4c-1-3.6-1.9-4.3-5.7-4.3h-5l-2.3,10.7h3.9c3.2,0,3.9-0.9,4.9-3.2h0.4
			l-1.6,7.7h-0.4c-0.2-2.1-0.4-3.4-3.5-3.4h-3.9l-2.1,10.1c-0.2,1,0,1.6,1.1,1.6h4.1c3.7,0,4.9-0.6,7.9-4.9h0.4l-2.1,5.9h-17.6
			l0.1-0.4c2.4,0,2.9-1.6,3.4-4.2l3.4-16.3c0.6-2.6,0.8-4.2-1.6-4.2L248.5,449.9z"/>
	</g>
	<g class="st0">
		<path class="st1" d="M235.3,532.5l-20-31.2v31.2h-8.6v-44h10.7l18.3,29.1v-29.1h8.6v44H235.3z"/>
		<path class="st1" d="M273.1,487.6c12,0,22.6,8.7,22.6,22.9c0,14.1-10.7,22.9-22.6,22.9c-11.9,0-22.6-8.7-22.6-22.9
			C250.5,496.3,261.2,487.6,273.1,487.6z M273.1,525.1c6.8,0,13.8-4.7,13.8-14.6c0-9.9-6.9-14.6-13.8-14.6
			c-6.8,0-13.7,4.7-13.7,14.6C259.4,520.4,266.3,525.1,273.1,525.1z"/>
		<path class="st1" d="M315,515.6h-4.5v16.9h-8.6v-44h17.2c8.6,0,14,5.9,14,13.5c0,6.1-3.6,10.8-9.4,12.5l9.4,18h-9.5L315,515.6z
			 M317.5,508.2c4.3,0,6.9-2.5,6.9-6.1c0-3.7-2.5-6.1-6.9-6.1h-6.9v12.2H317.5z"/>
		<path class="st1" d="M357.9,496.6v35.8h-8.6v-35.8h-13.9v-8.1h36.4v8.1H357.9z"/>
		<path class="st1" d="M404.3,532.5v-18.2h-19.2v18.2h-8.6v-44h8.6v17.7h19.2v-17.7h8.6v44H404.3z"/>
	</g>
	<g class="st0">
		<path class="st1" d="M239.5,601.9c1.2,9.2,2.6,12,7.1,12.4l-0.2,1.3h-20.5l0.2-1.3c6.1-0.4,8.7-2.7,7.7-10.2l-2.1-16.3h-27.3
			l-4.7,8.7c-7,12.6-9.3,17.3-1.5,17.8l-0.2,1.3h-17.2l0.2-1.3c4.2-0.4,7.9-5.7,15.1-18.6l32.6-58.8h2.4L239.5,601.9z M206.1,584.6
			h25l-4.8-36.8L206.1,584.6z"/>
		<path class="st1" d="M335.7,600.8c-5.3,10.1-11.1,16-15.1,16c-3.9,0-4.4-3.6-2.9-10.1l6.5-28.2c1.9-8.3,3.2-15.2-2.7-15.2
			c-10.7,0-25.9,24.2-31.9,52.2h-5.3l7.8-37c1.7-8.3,3.2-15.2-2.7-15.2c-10.7,0-25.9,24.3-31.9,52.2h-5.4l9.7-46
			c0.6-3,1.3-5.6-0.6-5.6c-1.6,0-4.2,3.5-7.7,9l-1.7-1.1c4.9-9.2,9.3-13.7,13.2-13.7c3.6,0,3.9,3.9,2.6,10.1l-4.9,23.1
			c8.1-19.9,19.4-33.2,29.7-33.2c9.1,0,7.3,10,4.9,21.1l-2.6,12.1c8.1-19.9,19.5-33.2,29.7-33.2c9.1,0,7.5,10,4.9,21.1l-6,26.2
			c-0.6,3-1.4,5.6,0.4,5.6c2,0,6.4-5.2,10-11.3L335.7,600.8z"/>
		<path class="st1" d="M344.2,589.1c-0.7,3.1-1.2,6.3-1.2,9.5c0,9.4,3.4,13.7,9.6,13.7c6.6,0,13.7-5,20.1-12.9l1.7,1.1
			c-7.6,11-15.7,16.4-23.8,16.4c-7.9,0-13.5-5.2-13.5-16.9c0-17.8,13.1-41.7,32.8-41.7c7.4,0,10.3,3.2,10.3,7.6
			C380.4,576.3,365.9,582.3,344.2,589.1z M345.1,585.9c19-6.5,29.3-11.1,29.3-19.4c0-3.6-1.9-5.6-6-5.6
			C359.3,561,349.3,572.3,345.1,585.9z"/>
		<path class="st1" d="M420,559.1l-3,6.6h-1.1c-1.1-0.4-1.9-0.6-3.2-0.6c-10.8,0-20.5,26.5-25.7,50.5h-5.4l9.7-46
			c0.6-3,1.3-5.6-0.6-5.6c-1.6,0-4.2,3.5-7.7,9l-1.7-1.1c4.9-9.2,9.3-13.7,13.2-13.7c3.6,0,3.9,3.9,2.6,10.1l-3.9,17.8
			c5.8-15.5,13.6-27.8,22.5-27.8C417.1,558.2,418.6,558.3,420,559.1z"/>
		<path class="st1" d="M419,606.8l7.9-37.2c0.6-3,1.3-5.6-0.6-5.6c-1.6,0-4.2,3.5-7.7,9l-1.7-1.1c4.9-9.2,9.3-13.7,13.2-13.7
			c3.6,0,3.9,3.9,2.6,10.1l-7.9,37.2c-0.3,1.5-1.2,5,0.7,5c2.1,0,6.2-5.1,9.7-10.8l1.7,1.1c-5.3,10.1-11,16-15.3,16
			C417.3,616.8,418,611.1,419,606.8z M428.9,543.7c0-2.6,2.1-4.7,4.7-4.7c2.6,0,4.7,2.1,4.7,4.7s-2.1,4.7-4.7,4.7
			C431,548.4,428.9,546.2,428.9,543.7z"/>
		<path class="st1" d="M438.7,599.9c0-18.2,13.8-41.7,31.2-41.7c7.7,0,11.6,4.6,11.6,10.6l-4.7,4.8h-1.3c1.1-8.8-1.1-12.6-6.3-12.6
			c-11.8,0-24.7,18.9-24.7,37.7c0,9.8,3.6,13.7,9.8,13.7c6.6,0,12.1-5.1,18.5-13.1l1.8,1.2c-7.6,11.2-14.3,16.4-22.5,16.4
			C444.3,616.8,438.7,611.6,438.7,599.9z"/>
		<path class="st1" d="M530.9,600.8c-5.4,10.1-11,16-15.3,16s-3.5-5.8-2.6-10.1l2.6-12.1c-6.6,14.2-16.5,22.1-25.4,22.1
			c-6.6,0-10.5-5.2-10.5-15.1c0-19.2,14.4-43.5,33.5-43.5c4.7,0,8.2,1.3,10.3,4.2l3-3.5h2.1l-10,46.6c-0.3,1.5-1.2,5,0.7,5
			c2.1,0,6.2-5.1,9.7-10.8L530.9,600.8z M519.6,576.2c0.3-1.5,0.5-2.9,0.5-5c0-6-1.8-10.2-8.3-10.2c-13.6,0-26,21.4-26,38.6
			c0,8.6,2.7,12.9,7.7,12.9C502.4,612.6,515,597.5,519.6,576.2z"/>
		<path class="st1" d="M585.5,600.8c-5.3,10.1-11.1,16-15.1,16c-3.9,0-4.4-3.6-2.9-10.1l6.5-28.2c1.9-8.3,3.2-15.2-2.7-15.2
			c-10.7,0-25.9,24.3-31.9,52.2h-5.4l9.7-46c0.6-3,1.3-5.6-0.6-5.6c-1.6,0-4.2,3.5-7.7,9l-1.7-1.1c4.9-9.2,9.3-13.7,13.2-13.7
			c3.6,0,3.9,3.9,2.6,10.1l-4.9,23.1c8.1-19.9,19.4-33.2,29.7-33.2c9.1,0,7.5,10,4.9,21.1l-6,26.2c-0.6,3-1.4,5.6,0.4,5.6
			c2,0,6.4-5.2,10-11.3L585.5,600.8z"/>
	</g>
	<g class="st0">
		<path class="st1" d="M323.8,663.9v16.6h-8.6v-44h16.4c8.7,0,14.4,5.8,14.4,13.7c0,8-5.8,13.7-14.4,13.7H323.8z M330.6,656.5
			c4.3,0,6.9-2.5,6.9-6.3c0-3.9-2.6-6.3-6.9-6.3h-6.8v12.6H330.6z"/>
		<path class="st1" d="M364.5,663.5H360v16.9h-8.6v-44h17.2c8.6,0,14,5.9,14,13.5c0,6.1-3.6,10.8-9.4,12.5l9.4,18h-9.5L364.5,663.5z
			 M366.9,656.1c4.3,0,6.9-2.5,6.9-6.1c0-3.7-2.5-6.1-6.9-6.1H360v12.2H366.9z"/>
		<path class="st1" d="M408.5,635.6c12,0,22.6,8.7,22.6,22.9c0,14.1-10.7,22.9-22.6,22.9c-11.9,0-22.6-8.7-22.6-22.9
			C386,644.3,396.6,635.6,408.5,635.6z M408.5,673.1c6.8,0,13.8-4.7,13.8-14.6c0-9.9-6.9-14.6-13.8-14.6c-6.8,0-13.7,4.7-13.7,14.6
			C394.8,668.3,401.8,673.1,408.5,673.1z"/>
		<path class="st1" d="M433.6,664.1l8.2-1.5v4c0.1,4.5,2.6,6.6,6.1,6.6c3.6,0,5.8-2.5,5.8-6.4v-30.4h8.6v30.4
			c0,7.9-5.8,14.5-14.3,14.5c-8.7,0-14.4-5.7-14.4-14.3V664.1z"/>
		<path class="st1" d="M470.7,680.4v-44h27.5v8.1h-19v10h17.2v7.6h-17.2v10.2h19v8.1H470.7z"/>
		<path class="st1" d="M502.8,658.5c0-14,10.6-22.9,22.4-22.9c12.2,0,18.4,7.4,20.1,14.6l-8.1,2.5c-1.1-4.2-4.5-8.9-12.1-8.9
			c-6.6,0-13.5,4.7-13.5,14.7c0,9.4,6.6,14.5,13.6,14.5c7.5,0,11.2-4.9,12.3-9l8,2.4c-1.7,6.8-8,14.9-20.3,14.9
			C513,681.4,502.8,672.5,502.8,658.5z"/>
		<path class="st1" d="M569.5,644.6v35.8h-8.6v-35.8H547v-8.1h36.4v8.1H569.5z"/>
	</g>
	<g id="Línea_1">
		<rect x="285.4" y="460.6" class="st1" width="302.2" height="2"/>
	</g>
	<g id="Línea_2">
		<rect x="180.3" y="657.6" class="st1" width="117.2" height="2"/>
	</g>
</g>
</svg>
